<svg width="100%" height="auto" viewBox="0 0 270 38" fill="none" xmlns="http://www.w3.org/2000/svg">
<path d="M44.7973 5.99105C46.1035 5.99105 47.2407 6.22135 48.2092 6.68195C49.1777 7.14254 49.9217 7.79072 50.4412 8.62648C50.9607 9.46224 51.2204 10.4261 51.2204 11.5182C51.2204 12.6103 50.9607 13.5723 50.4412 14.4043C49.9217 15.2364 49.1759 15.8827 48.2037 16.3433C47.2315 16.8039 46.096 17.0342 44.7973 17.0342H39.4651V22.7062H35.6914V5.99105H44.7973ZM44.5969 13.914C45.4726 13.914 46.1572 13.7023 46.6508 13.2789C47.1443 12.8554 47.391 12.2685 47.391 11.5182C47.391 10.7679 47.1443 10.1791 46.6508 9.75196C46.1572 9.3248 45.4726 9.11122 44.5969 9.11122H39.4651V13.914H44.5969ZM60.0344 23.0405C58.4759 23.0405 57.0974 22.7619 55.8989 22.2048C54.7004 21.6476 53.7709 20.8657 53.1104 19.8591C52.4499 18.8524 52.1196 17.6917 52.1196 16.3767C52.1196 15.0544 52.4499 13.888 53.1104 12.8777C53.7709 11.8674 54.7004 11.0836 55.8989 10.5264C57.0974 9.96926 58.4759 9.69067 60.0344 9.69067C61.5929 9.69067 62.9714 9.96926 64.1699 10.5264C65.3684 11.0836 66.2979 11.8674 66.9584 12.8777C67.6189 13.888 67.9492 15.0544 67.9492 16.3767C67.9492 17.6917 67.6189 18.8524 66.9584 19.8591C66.2979 20.8657 65.3684 21.6476 64.1699 22.2048C62.9714 22.7619 61.5929 23.0405 60.0344 23.0405ZM55.8822 16.3767C55.8822 17.1642 56.0492 17.8458 56.3831 18.4216C56.7171 18.9973 57.1958 19.4412 57.8192 19.7532C58.4425 20.0652 59.181 20.2212 60.0344 20.2212C60.8878 20.2212 61.6244 20.0652 62.2441 19.7532C62.8638 19.4412 63.3406 18.9973 63.6745 18.4216C64.0085 17.8458 64.1755 17.1642 64.1755 16.3767C64.1755 15.5893 64.0085 14.9058 63.6745 14.3263C63.3406 13.7469 62.8619 13.3011 62.2385 12.9891C61.6151 12.6771 60.8804 12.5211 60.0344 12.5211C59.181 12.5211 58.4425 12.6771 57.8192 12.9891C57.1958 13.3011 56.7171 13.7469 56.3831 14.3263C56.0492 14.9058 55.8822 15.5893 55.8822 16.3767ZM73.791 5.54532V22.7062H70.0618V5.54532H73.791ZM76.5492 5.54532H80.2784V17.9814L86.7571 10.0361H90.8203L86.4009 15.1844L91.1765 22.7062H86.913L84.0298 17.9368L79.9333 22.7062H76.5492V5.54532ZM103.107 19.8535C102.477 20.8638 101.681 21.6476 100.72 22.2048C99.7586 22.7619 98.6918 23.0405 97.5192 23.0405C96.2947 23.0405 95.2038 22.7619 94.2464 22.2048C93.2891 21.6476 92.5451 20.8638 92.0145 19.8535C91.4839 18.8431 91.2186 17.6842 91.2186 16.3767C91.2186 15.0618 91.4839 13.8973 92.0145 12.8833C92.5451 11.8692 93.2872 11.0836 94.2409 10.5264C95.1945 9.96926 96.2873 9.69067 97.5192 9.69067C98.6918 9.69067 99.7586 9.9674 100.72 10.5209C101.681 11.0743 102.48 11.8562 103.119 12.8666L103.441 10.0361H107.293L106.558 16.3656L107.293 22.7062H103.441L103.107 19.8535ZM94.9923 16.3767C94.9923 17.1048 95.1444 17.7548 95.4487 18.3268C95.753 18.8989 96.1741 19.3446 96.7122 19.664C97.2502 19.9835 97.8606 20.1432 98.5434 20.1432C99.2335 20.1432 99.8903 19.9835 100.514 19.664C101.137 19.3446 101.684 18.9007 102.156 18.3324C102.627 17.7641 102.996 17.1122 103.263 16.3767C102.996 15.6413 102.627 14.9875 102.156 14.4155C101.684 13.8435 101.137 13.3959 100.514 13.0727C99.8903 12.7495 99.2335 12.588 98.5434 12.588C97.8606 12.588 97.2502 12.7495 96.7122 13.0727C96.1741 13.3959 95.753 13.8453 95.4487 14.4211C95.1444 14.9968 94.9923 15.6487 94.9923 16.3767ZM121.061 19.7532C120.422 20.7933 119.617 21.6011 118.645 22.1769C117.673 22.7526 116.593 23.0405 115.406 23.0405C114.181 23.0405 113.09 22.7619 112.133 22.2048C111.176 21.6476 110.432 20.8638 109.901 19.8535C109.37 18.8431 109.105 17.6842 109.105 16.3767C109.105 15.0618 109.37 13.8973 109.901 12.8833C110.432 11.8692 111.174 11.0836 112.127 10.5264C113.081 9.96926 114.174 9.69067 115.406 9.69067C116.593 9.69067 117.673 9.97297 118.645 10.5376C119.617 11.1022 120.419 11.9008 121.05 12.9334L121.873 5.54532H125.725L124.5 16.1093L125.224 22.7062H121.395L121.061 19.7532ZM112.879 16.3767C112.879 17.1048 113.031 17.7548 113.335 18.3268C113.639 18.8989 114.061 19.3446 114.599 19.664C115.137 19.9835 115.747 20.1432 116.43 20.1432C117.12 20.1432 117.777 19.9835 118.4 19.664C119.024 19.3446 119.571 18.9007 120.042 18.3324C120.513 17.7641 120.883 17.1122 121.15 16.3767C120.883 15.6413 120.513 14.9875 120.042 14.4155C119.571 13.8435 119.024 13.3959 118.4 13.0727C117.777 12.7495 117.12 12.588 116.43 12.588C115.747 12.588 115.137 12.7495 114.599 13.0727C114.061 13.3959 113.639 13.8453 113.335 14.4211C113.031 14.9968 112.879 15.6487 112.879 16.3767ZM134.895 23.0405C133.337 23.0405 131.958 22.7619 130.76 22.2048C129.561 21.6476 128.632 20.8657 127.971 19.8591C127.311 18.8524 126.98 17.6917 126.98 16.3767C126.98 15.0544 127.311 13.888 127.971 12.8777C128.632 11.8674 129.561 11.0836 130.76 10.5264C131.958 9.96926 133.337 9.69067 134.895 9.69067C136.454 9.69067 137.832 9.96926 139.031 10.5264C140.229 11.0836 141.159 11.8674 141.819 12.8777C142.48 13.888 142.81 15.0544 142.81 16.3767C142.81 17.6917 142.48 18.8524 141.819 19.8591C141.159 20.8657 140.229 21.6476 139.031 22.2048C137.832 22.7619 136.454 23.0405 134.895 23.0405ZM130.743 16.3767C130.743 17.1642 130.91 17.8458 131.244 18.4216C131.578 18.9973 132.057 19.4412 132.68 19.7532C133.303 20.0652 134.042 20.2212 134.895 20.2212C135.749 20.2212 136.485 20.0652 137.105 19.7532C137.725 19.4412 138.201 18.9973 138.535 18.4216C138.869 17.8458 139.036 17.1642 139.036 16.3767C139.036 15.5893 138.869 14.9058 138.535 14.3263C138.201 13.7469 137.723 13.3011 137.099 12.9891C136.476 12.6771 135.741 12.5211 134.895 12.5211C134.042 12.5211 133.303 12.6771 132.68 12.9891C132.057 13.3011 131.578 13.7469 131.244 14.3263C130.91 14.9058 130.743 15.5893 130.743 16.3767ZM143.409 11.1839L146.047 10.3147L147.628 6.6708H149.765V10.0361H155.364V12.8331H149.765V17.4354C149.765 18.104 149.854 18.6314 150.032 19.0177C150.21 19.404 150.496 19.6826 150.889 19.8535C151.283 20.0244 151.821 20.1098 152.503 20.1098C153.127 20.1098 153.685 20.0504 154.179 19.9315C154.672 19.8126 155.142 19.6343 155.587 19.3966V22.305C155.127 22.5056 154.541 22.6783 153.828 22.8232C153.116 22.9681 152.399 23.0405 151.68 23.0405C149.765 23.0405 148.347 22.5948 147.427 21.7033C146.507 20.8118 146.047 19.5675 146.047 17.9702V12.8331H143.409V11.1839ZM186.985 22.7062H183.389V9.37866L177.222 22.7062H173.315L167.148 9.43438V22.7062H163.552V5.99105H169.363L175.285 19.0846L181.174 5.99105H186.985V22.7062ZM195.287 23.0405C194.129 23.0405 193.135 22.8009 192.304 22.3218C191.472 21.8426 190.838 21.1554 190.4 20.2602C189.962 19.365 189.743 18.3046 189.743 17.0788V10.0361H193.461V16.5327C193.461 17.6545 193.727 18.5107 194.257 19.1013C194.788 19.6919 195.55 19.9872 196.545 19.9872C197.257 19.9872 197.873 19.8331 198.393 19.5248C198.912 19.2165 199.311 18.7744 199.589 18.1987C199.868 17.6229 200.007 16.9451 200.007 16.165V10.0361H203.725V18.4606L204.504 22.7062H200.786L200.33 19.8869C199.803 20.8973 199.102 21.6754 198.226 22.2215C197.35 22.7675 196.37 23.0405 195.287 23.0405ZM210.413 5.54532V22.7062H206.684V5.54532H210.413ZM211.902 11.1839L214.54 10.3147L216.121 6.6708H218.258V10.0361H223.858V12.8331H218.258V17.4354C218.258 18.104 218.347 18.6314 218.525 19.0177C218.704 19.404 218.989 19.6826 219.383 19.8535C219.776 20.0244 220.314 20.1098 220.997 20.1098C221.62 20.1098 222.179 20.0504 222.672 19.9315C223.166 19.8126 223.635 19.6343 224.08 19.3966V22.305C223.62 22.5056 223.034 22.6783 222.321 22.8232C221.609 22.9681 220.893 23.0405 220.173 23.0405C218.258 23.0405 216.841 22.5948 215.921 21.7033C215 20.8118 214.54 19.5675 214.54 17.9702V12.8331H211.902V11.1839ZM227.907 10.2478L229.766 9.89126V22.7062H226.037V9.89126L227.907 10.2478ZM225.625 6.64852C225.625 6.06906 225.835 5.60289 226.254 5.25002C226.673 4.89714 227.224 4.7207 227.907 4.7207C228.583 4.7207 229.13 4.89714 229.549 5.25002C229.968 5.60289 230.178 6.06906 230.178 6.64852C230.178 7.22798 229.968 7.69414 229.549 8.04702C229.13 8.3999 228.583 8.57633 227.907 8.57633C227.224 8.57633 226.673 8.3999 226.254 8.04702C225.835 7.69414 225.625 7.22798 225.625 6.64852ZM246.417 18.7169C246.417 19.6306 246.15 20.4107 245.616 21.057C245.081 21.7033 244.295 22.1955 243.256 22.5335C242.217 22.8715 240.955 23.0405 239.471 23.0405C237.942 23.0405 236.602 22.8492 235.452 22.4666C234.302 22.084 233.408 21.5473 232.769 20.8564C232.131 20.1655 231.79 19.3595 231.745 18.4383H235.519C235.66 19.0623 236.087 19.5526 236.799 19.9092C237.512 20.2658 238.439 20.4441 239.582 20.4441C241.712 20.4441 242.777 19.9724 242.777 19.0289C242.777 18.7911 242.693 18.598 242.526 18.4494C242.359 18.3008 242.087 18.1801 241.708 18.0873C241.33 17.9944 240.807 17.9182 240.139 17.8588L237.779 17.6582C235.745 17.5022 234.291 17.0918 233.415 16.4269C232.539 15.762 232.101 14.8909 232.101 13.8137C232.101 12.9223 232.382 12.1682 232.942 11.5516C233.502 10.935 234.291 10.4707 235.307 10.1587C236.324 9.84668 237.512 9.69067 238.87 9.69067C240.22 9.69067 241.434 9.87454 242.51 10.2423C243.586 10.61 244.445 11.1245 245.087 11.7856C245.729 12.4468 246.091 13.2046 246.172 14.0589H242.398C242.287 13.5389 241.927 13.1024 241.319 12.7495C240.71 12.3967 239.831 12.2202 238.68 12.2202C237.753 12.2202 237.037 12.3335 236.532 12.5601C236.027 12.7867 235.775 13.108 235.775 13.524C235.775 13.836 235.936 14.083 236.259 14.2651C236.582 14.4471 237.148 14.5715 237.957 14.6384L241.029 14.8947C242.365 15.0061 243.428 15.2252 244.219 15.5521C245.009 15.879 245.573 16.3043 245.911 16.828C246.248 17.3518 246.417 17.9814 246.417 18.7169ZM250.389 10.2478L252.248 9.89126V22.7062H248.519V9.89126L250.389 10.2478ZM248.107 6.64852C248.107 6.06906 248.316 5.60289 248.736 5.25002C249.155 4.89714 249.706 4.7207 250.389 4.7207C251.064 4.7207 251.611 4.89714 252.031 5.25002C252.45 5.60289 252.66 6.06906 252.66 6.64852C252.66 7.22798 252.45 7.69414 252.031 8.04702C251.611 8.3999 251.064 8.57633 250.389 8.57633C249.706 8.57633 249.155 8.3999 248.736 8.04702C248.316 7.69414 248.107 7.22798 248.107 6.64852ZM266.283 18.8617C265.622 19.6566 264.798 20.3029 263.811 20.8007C262.824 21.2984 261.73 21.5473 260.527 21.5473C259.362 21.5473 258.31 21.3003 257.371 20.8062C256.433 20.3122 255.696 19.6158 255.162 18.7169C254.627 17.8179 254.36 16.7853 254.36 15.619C254.36 14.4526 254.627 13.42 255.162 12.5211C255.696 11.6222 256.433 10.9257 257.371 10.4317C258.31 9.93769 259.362 9.69067 260.527 9.69067C261.73 9.69067 262.822 9.94883 263.806 10.4651C264.789 10.9815 265.615 11.6519 266.283 12.4765V10.0361H270.001V19.3297C270.001 20.8898 269.654 22.2252 268.96 23.3358C268.266 24.4464 267.292 25.2878 266.038 25.8598C264.783 26.4318 263.329 26.7178 261.674 26.7178C260.538 26.7178 259.481 26.5711 258.501 26.2777C257.522 25.9842 256.557 25.5292 255.607 24.9126V21.993C257.299 23.2857 259.243 23.932 261.44 23.932C263.021 23.932 264.223 23.5661 265.047 22.8344C265.871 22.1026 266.283 21.0087 266.283 19.5526V18.8617ZM258.112 15.619C258.112 16.2802 258.255 16.8596 258.54 17.3574C258.826 17.8551 259.242 18.2414 259.787 18.5163C260.333 18.7911 260.984 18.9286 261.741 18.9286C263.715 18.9286 265.273 17.8254 266.416 15.619C265.273 13.4051 263.715 12.2982 261.741 12.2982C260.991 12.2982 260.344 12.4357 259.798 12.7105C259.253 12.9854 258.835 13.3736 258.546 13.875C258.256 14.3765 258.112 14.9578 258.112 15.619Z" fill="white"/>
<path fill-rule="evenodd" clip-rule="evenodd" d="M14.3747 28.9061C6.43576 28.9061 0 22.4637 0 14.5165C0 6.56938 6.43576 0.126953 14.3747 0.126953C22.3136 0.126953 28.7493 6.56938 28.7493 14.5165C28.7493 22.4637 22.3136 28.9061 14.3747 28.9061ZM22.6045 10.6038L18.719 11.7605C17.4037 12.1521 16.0764 11.1851 16.0413 9.80991L15.9378 5.74712H12.8116L12.708 9.80992C12.6729 11.1851 11.3456 12.1521 10.0304 11.7605L6.14483 10.6038L5.17875 13.5851L9.00033 14.9393C10.2939 15.3977 10.8009 16.9623 10.0231 18.0955L7.72521 21.4434L10.2544 23.2859L12.7198 20.0601C13.5544 18.9682 15.195 18.9682 16.0295 20.0601L18.4949 23.2859L21.0242 21.4434L18.7263 18.0955C17.9485 16.9623 18.4555 15.3977 19.749 14.9393L23.5706 13.5851L22.6045 10.6038Z" fill="white"/>
<path d="M184.464 30.3116C184.912 30.3116 185.303 30.393 185.639 30.5558C185.975 30.7186 186.235 30.9458 186.418 31.2375C186.601 31.5291 186.692 31.8635 186.692 32.2407C186.692 32.6178 186.601 32.9522 186.418 33.2439C186.235 33.5355 185.975 33.7628 185.639 33.9255C185.303 34.0883 184.912 34.1697 184.464 34.1697H182.31V36.4162H181.236V30.3116H184.464ZM184.424 33.2418C184.665 33.2418 184.874 33.2011 185.052 33.1197C185.229 33.0383 185.366 32.9223 185.46 32.7718C185.555 32.6212 185.603 32.4441 185.603 32.2407C185.603 32.0372 185.555 31.8601 185.46 31.7096C185.366 31.559 185.229 31.443 185.052 31.3616C184.874 31.2802 184.665 31.2395 184.424 31.2395H182.31V33.2418H184.424ZM189.83 36.5302C189.277 36.5302 188.789 36.4291 188.364 36.227C187.94 36.0249 187.611 35.7407 187.376 35.3744C187.142 35.0081 187.025 34.5876 187.025 34.1128C187.025 33.6379 187.142 33.2174 187.376 32.8511C187.611 32.4848 187.94 32.2006 188.364 31.9985C188.789 31.7964 189.277 31.6953 189.83 31.6953C190.383 31.6953 190.871 31.7964 191.296 31.9985C191.72 32.2006 192.049 32.4848 192.284 32.8511C192.518 33.2174 192.635 33.6379 192.635 34.1128C192.635 34.5876 192.518 35.0081 192.284 35.3744C192.049 35.7407 191.72 36.0249 191.296 36.227C190.871 36.4291 190.383 36.5302 189.83 36.5302ZM188.098 34.1128C188.098 34.4356 188.169 34.7164 188.31 34.9552C188.45 35.194 188.651 35.3778 188.911 35.5067C189.171 35.6355 189.478 35.7 189.83 35.7C190.182 35.7 190.489 35.6355 190.749 35.5067C191.009 35.3778 191.21 35.194 191.351 34.9552C191.491 34.7164 191.562 34.4356 191.562 34.1128C191.562 33.7926 191.491 33.5131 191.351 33.2744C191.21 33.0356 191.009 32.8511 190.749 32.7209C190.489 32.5907 190.182 32.5255 189.83 32.5255C189.478 32.5255 189.171 32.5907 188.911 32.7209C188.651 32.8511 188.45 33.0356 188.31 33.2744C188.169 33.5131 188.098 33.7926 188.098 34.1128ZM193.878 31.8093L195.273 35.3622L196.667 31.8093H197.724L199.09 35.3866L200.489 31.8093H201.546L199.692 36.4162H198.611L197.188 32.8104L195.732 36.4162H194.651L192.805 31.8093H193.878ZM204.489 36.5302C203.955 36.5302 203.477 36.4285 203.056 36.225C202.634 36.0215 202.305 35.7359 202.07 35.3683C201.834 35.0006 201.716 34.5794 201.716 34.1046C201.716 33.6325 201.828 33.214 202.053 32.8491C202.278 32.4842 202.591 32.2006 202.993 31.9985C203.394 31.7964 203.849 31.6953 204.359 31.6953C204.865 31.6953 205.309 31.8106 205.69 32.0412C206.071 32.2719 206.364 32.5981 206.57 33.02C206.776 33.4419 206.879 33.931 206.879 34.4872H202.838C202.93 34.8697 203.138 35.1675 203.462 35.3805C203.786 35.5935 204.196 35.7 204.692 35.7C205.047 35.7 205.408 35.6437 205.775 35.5311C206.143 35.4185 206.467 35.2631 206.749 35.0651V35.8302C206.465 36.0473 206.121 36.2182 205.718 36.343C205.316 36.4678 204.906 36.5302 204.489 36.5302ZM205.781 33.6814C205.706 33.3151 205.541 33.0309 205.288 32.8287C205.034 32.6266 204.716 32.5255 204.334 32.5255C204.069 32.5255 203.831 32.5723 203.621 32.6659C203.411 32.7596 203.236 32.8932 203.098 33.0668C202.96 33.2405 202.868 33.4453 202.822 33.6814H205.781ZM208.545 31.8093L208.753 33.079C208.896 32.6503 209.118 32.3126 209.417 32.0657C209.717 31.8188 210.085 31.6953 210.521 31.6953C210.629 31.6953 210.741 31.7028 210.854 31.7177C210.968 31.7326 211.069 31.7523 211.155 31.7767V32.7046C211.036 32.6721 210.907 32.6476 210.767 32.6314C210.627 32.6151 210.494 32.6069 210.367 32.6069C210.066 32.6069 209.799 32.6734 209.566 32.8064C209.333 32.9393 209.15 33.1353 209.019 33.3944C208.887 33.6535 208.822 33.9662 208.822 34.3325V36.4162H207.765V33.2825L207.488 31.8093H208.545ZM214.114 36.5302C213.58 36.5302 213.102 36.4285 212.681 36.225C212.26 36.0215 211.931 35.7359 211.695 35.3683C211.459 35.0006 211.341 34.5794 211.341 34.1046C211.341 33.6325 211.454 33.214 211.679 32.8491C211.904 32.4842 212.217 32.2006 212.618 31.9985C213.019 31.7964 213.474 31.6953 213.984 31.6953C214.491 31.6953 214.935 31.8106 215.315 32.0412C215.696 32.2719 215.99 32.5981 216.196 33.02C216.402 33.4419 216.505 33.931 216.505 34.4872H212.463C212.556 34.8697 212.764 35.1675 213.088 35.3805C213.411 35.5935 213.821 35.7 214.317 35.7C214.672 35.7 215.034 35.6437 215.401 35.5311C215.768 35.4185 216.093 35.2631 216.375 35.0651V35.8302C216.09 36.0473 215.746 36.2182 215.344 36.343C214.941 36.4678 214.531 36.5302 214.114 36.5302ZM215.407 33.6814C215.331 33.3151 215.166 33.0309 214.913 32.8287C214.66 32.6266 214.342 32.5255 213.96 32.5255C213.694 32.5255 213.456 32.5723 213.246 32.6659C213.036 32.7596 212.862 32.8932 212.724 33.0668C212.585 33.2405 212.493 33.4453 212.447 33.6814H215.407ZM221.525 35.2442C221.286 35.6511 220.983 35.9672 220.614 36.1924C220.245 36.4176 219.838 36.5302 219.39 36.5302C218.946 36.5302 218.549 36.4291 218.199 36.227C217.849 36.0249 217.577 35.7407 217.382 35.3744C217.187 35.0081 217.089 34.5876 217.089 34.1128C217.089 33.6379 217.187 33.2174 217.382 32.8511C217.577 32.4848 217.849 32.2006 218.199 31.9985C218.549 31.7964 218.946 31.6953 219.39 31.6953C219.84 31.6953 220.249 31.8072 220.616 32.0311C220.983 32.2549 221.286 32.5703 221.525 32.9773L221.813 30.1488H222.903L222.488 34.0476L222.724 36.4162H221.643L221.525 35.2442ZM218.162 34.1128C218.162 34.4166 218.226 34.6879 218.352 34.9267C218.478 35.1655 218.653 35.3513 218.878 35.4843C219.103 35.6172 219.358 35.6837 219.642 35.6837C219.927 35.6837 220.195 35.6179 220.445 35.4863C220.696 35.3547 220.918 35.1709 221.112 34.9348C221.306 34.6988 221.461 34.4248 221.578 34.1128C221.461 33.8034 221.306 33.5308 221.112 33.2947C220.918 33.0587 220.696 32.8742 220.445 32.7412C220.195 32.6083 219.927 32.5418 219.642 32.5418C219.358 32.5418 219.103 32.609 218.878 32.7433C218.653 32.8776 218.478 33.0634 218.352 33.3008C218.226 33.5382 218.162 33.8089 218.162 34.1128ZM226.869 30.1488V32.9814C227.108 32.5744 227.411 32.2583 227.78 32.0331C228.148 31.8079 228.558 31.6953 229.008 31.6953C229.452 31.6953 229.849 31.7964 230.199 31.9985C230.548 32.2006 230.821 32.4848 231.016 32.8511C231.211 33.2174 231.309 33.6379 231.309 34.1128C231.309 34.5876 231.211 35.0081 231.016 35.3744C230.821 35.7407 230.548 36.0249 230.199 36.227C229.849 36.4291 229.452 36.5302 229.008 36.5302C228.558 36.5302 228.148 36.4162 227.78 36.1883C227.411 35.9604 227.108 35.6416 226.869 35.2319V36.4162H225.812V30.1488H226.869ZM226.82 34.1128C226.937 34.4248 227.092 34.6988 227.286 34.9348C227.48 35.1709 227.702 35.3547 227.953 35.4863C228.203 35.6179 228.471 35.6837 228.756 35.6837C229.04 35.6837 229.295 35.6172 229.52 35.4843C229.745 35.3513 229.92 35.1655 230.046 34.9267C230.172 34.6879 230.235 34.4166 230.235 34.1128C230.235 33.8089 230.172 33.5382 230.046 33.3008C229.92 33.0634 229.745 32.8776 229.52 32.7433C229.295 32.609 229.04 32.5418 228.756 32.5418C228.471 32.5418 228.203 32.6083 227.953 32.7412C227.702 32.8742 227.48 33.0587 227.286 33.2947C227.092 33.5308 226.937 33.8034 226.82 34.1128ZM233.032 37.8732C232.536 37.8732 232.086 37.7457 231.682 37.4907V36.6849C231.893 36.8178 232.092 36.9134 232.279 36.9718C232.467 37.0301 232.674 37.0593 232.902 37.0593C233.135 37.0593 233.337 37.0064 233.507 36.9005C233.678 36.7947 233.818 36.6225 233.926 36.3837L233.979 36.2697H233.56L231.446 31.8093H232.609L234.296 35.5697L235.999 31.8093H237.122L234.739 36.7418C234.379 37.4961 233.809 37.8732 233.032 37.8732ZM240.397 34.4302C240.429 34.6744 240.531 34.8887 240.702 35.0732C240.872 35.2577 241.099 35.4002 241.383 35.5005C241.666 35.6009 241.99 35.6511 242.356 35.6511C242.717 35.6511 243.031 35.6125 243.299 35.5351C243.568 35.4578 243.774 35.3473 243.919 35.2035C244.064 35.0597 244.137 34.8914 244.137 34.6988C244.137 34.536 244.097 34.4031 244.017 34.3C243.937 34.1969 243.806 34.1134 243.623 34.0497C243.44 33.9859 243.186 33.9337 242.86 33.893L241.543 33.7221C241.047 33.6569 240.645 33.5552 240.338 33.4168C240.03 33.2784 239.803 33.096 239.657 32.8694C239.51 32.6429 239.437 32.3628 239.437 32.029C239.437 31.66 239.55 31.3378 239.775 31.0625C240 30.7871 240.319 30.5741 240.732 30.4235C241.145 30.2729 241.627 30.1976 242.177 30.1976C242.719 30.1976 243.204 30.279 243.631 30.4418C244.058 30.6046 244.396 30.8332 244.645 31.1276C244.894 31.422 245.031 31.7604 245.056 32.143H243.966C243.939 31.9286 243.848 31.7414 243.694 31.5814C243.539 31.4213 243.33 31.2971 243.066 31.209C242.801 31.1208 242.497 31.0767 242.153 31.0767C241.822 31.0767 241.533 31.1133 241.285 31.1866C241.037 31.2598 240.846 31.3657 240.712 31.504C240.578 31.6424 240.51 31.8038 240.51 31.9883C240.51 32.1376 240.548 32.2603 240.624 32.3566C240.7 32.453 240.824 32.533 240.996 32.5968C241.168 32.6605 241.402 32.7128 241.698 32.7535L243.031 32.9407C243.587 33.0166 244.021 33.1191 244.334 33.2479C244.647 33.3768 244.871 33.5471 245.007 33.7587C245.142 33.9703 245.21 34.2457 245.21 34.5848C245.21 34.9728 245.091 35.314 244.852 35.6084C244.614 35.9028 244.278 36.13 243.844 36.2901C243.411 36.4502 242.909 36.5302 242.34 36.5302C241.76 36.5302 241.244 36.4427 240.793 36.2677C240.342 36.0927 239.987 35.8465 239.728 35.529C239.469 35.2116 239.329 34.8453 239.307 34.4302H240.397ZM246.575 31.8744L247.104 31.7767V36.4162H246.047V31.7767L246.575 31.8744ZM245.884 30.5965C245.884 30.4174 245.949 30.2722 246.077 30.161C246.206 30.0498 246.372 29.9941 246.575 29.9941C246.779 29.9941 246.945 30.0498 247.073 30.161C247.202 30.2722 247.267 30.4174 247.267 30.5965C247.267 30.7755 247.202 30.9207 247.073 31.0319C246.945 31.1432 246.779 31.1988 246.575 31.1988C246.372 31.1988 246.206 31.1432 246.077 31.0319C245.949 30.9207 245.884 30.7755 245.884 30.5965ZM252.364 34.9308C252.125 35.2591 251.814 35.529 251.431 35.7407C251.047 35.9523 250.621 36.0581 250.152 36.0581C249.735 36.0581 249.357 35.9672 249.018 35.7854C248.679 35.6036 248.412 35.3473 248.217 35.0162C248.022 34.6852 247.924 34.3054 247.924 33.8767C247.924 33.448 248.022 33.0682 248.217 32.7372C248.412 32.4062 248.679 32.1498 249.018 31.968C249.357 31.7862 249.735 31.6953 250.152 31.6953C250.618 31.6953 251.043 31.8045 251.427 32.0229C251.81 32.2413 252.123 32.5174 252.364 32.8511V31.8093H253.421V35.1872C253.421 35.7651 253.298 36.2555 253.053 36.6584C252.808 37.0613 252.467 37.3645 252.032 37.568C251.597 37.7715 251.095 37.8732 250.526 37.8732C250.117 37.8732 249.739 37.8196 249.392 37.7125C249.045 37.6053 248.708 37.4391 248.38 37.2139V36.3349C248.976 36.8069 249.67 37.043 250.461 37.043C251.076 37.043 251.547 36.8917 251.874 36.5892C252.201 36.2867 252.364 35.8519 252.364 35.2849V34.9308ZM248.989 33.8767C248.989 34.1535 249.048 34.397 249.164 34.6072C249.281 34.8175 249.451 34.9817 249.674 35.0997C249.898 35.2177 250.166 35.2767 250.477 35.2767C250.87 35.2767 251.227 35.1634 251.547 34.9369C251.866 34.7103 252.152 34.3569 252.404 33.8767C252.155 33.391 251.87 33.0349 251.549 32.8084C251.228 32.5818 250.87 32.4686 250.477 32.4686C250.168 32.4686 249.902 32.5276 249.679 32.6456C249.455 32.7636 249.284 32.9291 249.166 33.1421C249.048 33.3551 248.989 33.6 248.989 33.8767ZM255.315 31.8093L255.497 32.9162C255.687 32.5255 255.949 32.2244 256.284 32.0127C256.619 31.8011 256.998 31.6953 257.42 31.6953C257.851 31.6953 258.219 31.7814 258.524 31.9537C258.829 32.126 259.062 32.375 259.222 32.7005C259.381 33.0261 259.461 33.4155 259.461 33.8686V36.4162H258.404V34.0395C258.404 33.5593 258.291 33.195 258.065 32.9468C257.839 32.6985 257.51 32.5744 257.079 32.5744C256.781 32.5744 256.519 32.6402 256.294 32.7718C256.069 32.9034 255.896 33.0899 255.774 33.3314C255.652 33.5728 255.591 33.8523 255.591 34.1697V36.4162H254.534V33.3151L254.257 31.8093H255.315ZM262.989 36.5302C262.455 36.5302 261.978 36.4285 261.556 36.225C261.135 36.0215 260.806 35.7359 260.57 35.3683C260.335 35.0006 260.217 34.5794 260.217 34.1046C260.217 33.6325 260.329 33.214 260.554 32.8491C260.779 32.4842 261.092 32.2006 261.493 31.9985C261.894 31.7964 262.35 31.6953 262.859 31.6953C263.366 31.6953 263.81 31.8106 264.191 32.0412C264.572 32.2719 264.865 32.5981 265.071 33.02C265.277 33.4419 265.38 33.931 265.38 34.4872H261.339C261.431 34.8697 261.639 35.1675 261.963 35.3805C262.287 35.5935 262.697 35.7 263.193 35.7C263.548 35.7 263.909 35.6437 264.276 35.5311C264.643 35.4185 264.968 35.2631 265.25 35.0651V35.8302C264.965 36.0473 264.622 36.2182 264.219 36.343C263.817 36.4678 263.407 36.5302 262.989 36.5302ZM264.282 33.6814C264.206 33.3151 264.042 33.0309 263.788 32.8287C263.535 32.6266 263.217 32.5255 262.835 32.5255C262.569 32.5255 262.331 32.5723 262.121 32.6659C261.911 32.7596 261.737 32.8932 261.599 33.0668C261.461 33.2405 261.369 33.4453 261.323 33.6814H264.282ZM265.59 32.143L266.574 31.8907L267.013 30.6046H267.631V31.8093H269.77V32.6232H267.631V34.6174C267.631 34.8752 267.667 35.08 267.739 35.2319C267.811 35.3839 267.923 35.4931 268.077 35.5596C268.23 35.626 268.434 35.6593 268.688 35.6593C268.922 35.6593 269.13 35.6342 269.315 35.584C269.499 35.5338 269.678 35.4585 269.851 35.3581V36.229C269.694 36.3104 269.487 36.381 269.229 36.4407C268.972 36.5004 268.716 36.5302 268.461 36.5302C267.813 36.5302 267.337 36.3749 267.032 36.0642C266.727 35.7536 266.574 35.3256 266.574 34.7802V32.6232H265.59V32.143Z" fill="white"/>
</svg>
