<svg width="100%" height="auto" viewBox="0 0 121 35" fill="none" xmlns="http://www.w3.org/2000/svg">
<path fill-rule="evenodd" clip-rule="evenodd" d="M15.8542 32.6146C7.09816 32.6146 0 25.5164 0 16.7604C0 8.00441 7.09816 0.90625 15.8542 0.90625C24.6102 0.90625 31.7083 8.00441 31.7083 16.7604C31.7083 25.5164 24.6102 32.6146 15.8542 32.6146ZM24.9311 12.4495L20.6456 13.7239C19.195 14.1553 17.731 13.0899 17.6924 11.5748L17.5782 7.09845H14.1302L14.016 11.5748C13.9773 13.0899 12.5133 14.1553 11.0628 13.7239L6.77728 12.4495L5.71177 15.7342L9.92668 17.2262C11.3534 17.7313 11.9125 19.4551 11.0547 20.7036L8.52032 24.3923L11.3099 26.4224L14.029 22.8682C14.9495 21.6652 16.759 21.6652 17.6794 22.8682L20.3985 26.4224L23.188 24.3923L20.6537 20.7036C19.7959 19.4551 20.355 17.7313 21.7817 17.2262L25.9966 15.7342L24.9311 12.4495Z" fill="white"/>
<path d="M45.781 3.91009C46.6485 3.91009 47.4026 4.06288 48.0433 4.36847C48.689 4.67406 49.1844 5.10533 49.5294 5.66229C49.8744 6.21432 50.0469 6.85261 50.0469 7.57715C50.0469 8.30169 49.8744 8.93998 49.5294 9.49201C49.1844 10.044 48.689 10.4729 48.0433 10.7784C47.3977 11.084 46.6435 11.2368 45.781 11.2368H42.2396V15H39.7333V3.91009H45.781ZM45.6479 9.16671C46.2295 9.16671 46.683 9.02623 47.0083 8.74529C47.3385 8.46434 47.5036 8.07496 47.5036 7.57715C47.5036 7.07934 47.3385 6.68996 47.0083 6.40901C46.683 6.12314 46.2295 5.9802 45.6479 5.9802H42.2396V9.16671H45.6479ZM55.9276 15.2218C54.8925 15.2218 53.9757 15.037 53.1773 14.6673C52.3837 14.2976 51.7676 13.7801 51.329 13.1147C50.8903 12.4444 50.6709 11.673 50.6709 10.8006C50.6709 9.92328 50.8903 9.14945 51.329 8.47913C51.7676 7.80881 52.3837 7.28881 53.1773 6.91915C53.9757 6.54949 54.8925 6.36465 55.9276 6.36465C56.9626 6.36465 57.8769 6.54949 58.6705 6.91915C59.4689 7.28881 60.0875 7.80881 60.5262 8.47913C60.9649 9.14945 61.1842 9.92328 61.1842 10.8006C61.1842 11.673 60.9649 12.4444 60.5262 13.1147C60.0875 13.7801 59.4689 14.2976 58.6705 14.6673C57.8769 15.037 56.9626 15.2218 55.9276 15.2218ZM53.1699 10.8006C53.1699 11.3231 53.2808 11.7765 53.5026 12.161C53.7244 12.5405 54.0423 12.8338 54.4563 13.0408C54.8703 13.2478 55.3608 13.3513 55.9276 13.3513C56.4944 13.3513 56.9823 13.2478 57.3914 13.0408C57.8055 12.8338 58.1234 12.5405 58.3452 12.161C58.567 11.7765 58.6779 11.3231 58.6779 10.8006C58.6779 10.2782 58.567 9.82471 58.3452 9.44026C58.1234 9.05581 57.8055 8.76007 57.3914 8.55306C56.9774 8.34605 56.4895 8.24255 55.9276 8.24255C55.3608 8.24255 54.8703 8.34605 54.4563 8.55306C54.0423 8.76007 53.7244 9.05581 53.5026 9.44026C53.2808 9.82471 53.1699 10.2782 53.1699 10.8006ZM65.0852 3.61435V15H62.6084V3.61435H65.0852ZM66.9404 3.61435H69.4172V11.8653L73.7201 6.59384H76.4186L73.4835 10.0095L76.6552 15H73.8236L71.9087 11.8357L69.188 15H66.9404V3.61435ZM84.5885 13.1073C84.1696 13.7776 83.6397 14.2976 82.999 14.6673C82.3631 15.037 81.6559 15.2218 80.8771 15.2218C80.0638 15.2218 79.3393 15.037 78.7035 14.6673C78.0677 14.2976 77.5723 13.7776 77.2174 13.1073C76.8675 12.437 76.6925 11.6681 76.6925 10.8006C76.6925 9.92821 76.8675 9.15685 77.2174 8.48652C77.5723 7.81127 78.0652 7.28881 78.6961 6.91915C79.3319 6.54949 80.0589 6.36465 80.8771 6.36465C81.6559 6.36465 82.3631 6.54949 82.999 6.91915C83.6397 7.28388 84.172 7.80141 84.5959 8.47174L84.8103 6.59384H87.3684L86.8804 10.7932L87.3684 15H84.8103L84.5885 13.1073ZM79.1988 10.8006C79.1988 11.2836 79.2999 11.7149 79.502 12.0944C79.704 12.474 79.9825 12.7697 80.3374 12.9816C80.6972 13.1936 81.1038 13.2995 81.5573 13.2995C82.0157 13.2995 82.4519 13.1936 82.8659 12.9816C83.2799 12.7697 83.6422 12.4764 83.9527 12.1018C84.2681 11.7223 84.5146 11.2886 84.692 10.8006C84.5146 10.3127 84.2681 9.87892 83.9527 9.4994C83.6422 9.11988 83.2799 8.82415 82.8659 8.61221C82.4519 8.39534 82.0157 8.28691 81.5573 8.28691C81.1038 8.28691 80.6972 8.39534 80.3374 8.61221C79.9825 8.82415 79.704 9.12235 79.502 9.5068C79.2999 9.88632 79.1988 10.3176 79.1988 10.8006ZM96.5314 13.0408C96.1076 13.7308 95.5728 14.2681 94.9271 14.6525C94.2814 15.032 93.5643 15.2218 92.7757 15.2218C91.9624 15.2218 91.2379 15.037 90.602 14.6673C89.9662 14.2976 89.4709 13.7776 89.116 13.1073C88.766 12.437 88.5911 11.6681 88.5911 10.8006C88.5911 9.92821 88.766 9.15685 89.116 8.48652C89.4709 7.81127 89.9637 7.28881 90.5946 6.91915C91.2305 6.54949 91.9575 6.36465 92.7757 6.36465C93.5643 6.36465 94.2814 6.55195 94.9271 6.92654C95.5728 7.30114 96.1051 7.83099 96.524 8.5161L97.0711 3.61435H99.6292L98.816 10.6232L99.2965 15H96.7532L96.5314 13.0408ZM91.0974 10.8006C91.0974 11.2836 91.1984 11.7149 91.4005 12.0944C91.6026 12.474 91.8811 12.7697 92.2359 12.9816C92.5958 13.1936 93.0024 13.2995 93.4558 13.2995C93.9142 13.2995 94.3504 13.1936 94.7644 12.9816C95.1785 12.7697 95.5407 12.4764 95.8513 12.1018C96.1667 11.7223 96.4131 11.2886 96.5906 10.8006C96.4131 10.3127 96.1667 9.87892 95.8513 9.4994C95.5407 9.11988 95.1785 8.82415 94.7644 8.61221C94.3504 8.39534 93.9142 8.28691 93.4558 8.28691C93.0024 8.28691 92.5958 8.39534 92.2359 8.61221C91.8811 8.82415 91.6026 9.12235 91.4005 9.5068C91.1984 9.88632 91.0974 10.3176 91.0974 10.8006ZM105.731 15.2218C104.696 15.2218 103.779 15.037 102.981 14.6673C102.187 14.2976 101.571 13.7801 101.132 13.1147C100.694 12.4444 100.474 11.673 100.474 10.8006C100.474 9.92328 100.694 9.14945 101.132 8.47913C101.571 7.80881 102.187 7.28881 102.981 6.91915C103.779 6.54949 104.696 6.36465 105.731 6.36465C106.766 6.36465 107.68 6.54949 108.474 6.91915C109.272 7.28881 109.891 7.80881 110.33 8.47913C110.768 9.14945 110.988 9.92328 110.988 10.8006C110.988 11.673 110.768 12.4444 110.33 13.1147C109.891 13.7801 109.272 14.2976 108.474 14.6673C107.68 15.037 106.766 15.2218 105.731 15.2218ZM102.973 10.8006C102.973 11.3231 103.084 11.7765 103.306 12.161C103.528 12.5405 103.846 12.8338 104.26 13.0408C104.674 13.2478 105.164 13.3513 105.731 13.3513C106.298 13.3513 106.786 13.2478 107.195 13.0408C107.609 12.8338 107.927 12.5405 108.149 12.161C108.37 11.7765 108.481 11.3231 108.481 10.8006C108.481 10.2782 108.37 9.82471 108.149 9.44026C107.927 9.05581 107.609 8.76007 107.195 8.55306C106.781 8.34605 106.293 8.24255 105.731 8.24255C105.164 8.24255 104.674 8.34605 104.26 8.55306C103.846 8.76007 103.528 9.05581 103.306 9.44026C103.084 9.82471 102.973 10.2782 102.973 10.8006ZM111.41 7.35535L113.162 6.77868L114.212 4.36108H115.632V6.59384H119.351V8.44956H115.632V11.503C115.632 11.9466 115.691 12.2965 115.809 12.5528C115.928 12.8091 116.117 12.994 116.379 13.1073C116.64 13.2207 116.997 13.2774 117.451 13.2774C117.865 13.2774 118.234 13.2379 118.56 13.1591C118.89 13.0802 119.203 12.9619 119.499 12.8042V14.7338C119.193 14.8669 118.804 14.9803 118.33 15.0739C117.857 15.1725 117.382 15.2218 116.903 15.2218C115.632 15.2218 114.69 14.9261 114.079 14.3346C113.468 13.7431 113.162 12.9176 113.162 11.8579V8.44956H111.41V7.35535Z" fill="white"/>
<path d="M55.2961 31.4414H52.9081V22.599L48.8122 31.4414H46.2172L42.1213 22.636V31.4414H39.7333V20.3515H43.5926L47.5258 29.0386L51.4368 20.3515H55.2961V31.4414ZM60.8221 31.6632C60.0532 31.6632 59.3928 31.5055 58.8407 31.19C58.2887 30.8697 57.8673 30.4137 57.5765 29.8223C57.2857 29.2259 57.1403 28.5211 57.1403 27.7078V23.0353H59.6097V27.3455C59.6097 28.0898 59.7846 28.6591 60.1346 29.0534C60.4895 29.4428 60.9971 29.6374 61.6576 29.6374C62.1308 29.6374 62.5399 29.5364 62.8849 29.3343C63.2299 29.1273 63.4936 28.834 63.676 28.4545C63.8632 28.0701 63.9569 27.6191 63.9569 27.1016V23.0353H66.4263V28.6246L66.9438 31.4414H64.4744L64.1713 29.5709C63.8214 30.2412 63.3556 30.7588 62.774 31.1235C62.1924 31.4833 61.5418 31.6632 60.8221 31.6632ZM70.8901 20.0558V31.4414H68.4133V20.0558H70.8901ZM71.9025 23.7968L73.6547 23.2201L74.7045 20.8025H76.124V23.0353H79.8429V24.891H76.124V27.9444C76.124 28.388 76.1832 28.7379 76.3015 28.9942C76.4198 29.2505 76.6095 29.4354 76.8708 29.5487C77.132 29.6621 77.4893 29.7188 77.9428 29.7188C78.3568 29.7188 78.7265 29.6793 79.0518 29.6005C79.382 29.5216 79.695 29.4033 79.9907 29.2456V31.1752C79.6851 31.3083 79.2958 31.4217 78.8226 31.5153C78.3494 31.6139 77.8738 31.6632 77.3957 31.6632C76.124 31.6632 75.1826 31.3675 74.5714 30.776C73.9603 30.1845 73.6547 29.359 73.6547 28.2993V24.891H71.9025V23.7968ZM82.5503 23.1757L83.785 22.9391V31.4414H81.3082V22.9391L82.5503 23.1757ZM81.0347 20.7877C81.0347 20.4032 81.1727 20.0952 81.4487 19.8635C81.7296 19.627 82.0968 19.5087 82.5503 19.5087C82.9988 19.5087 83.3611 19.627 83.6371 19.8635C83.918 20.0952 84.0585 20.4032 84.0585 20.7877C84.0585 21.1721 83.918 21.4827 83.6371 21.7192C83.3611 21.9509 82.9988 22.0667 82.5503 22.0667C82.0968 22.0667 81.7296 21.9509 81.4487 21.7192C81.1727 21.4827 81.0347 21.1721 81.0347 20.7877ZM94.867 28.7946C94.867 29.4009 94.6896 29.9184 94.3347 30.3472C93.9798 30.776 93.4574 31.1038 92.7673 31.3305C92.0773 31.5523 91.2394 31.6632 90.2536 31.6632C89.2383 31.6632 88.3486 31.5375 87.5846 31.2861C86.8207 31.0298 86.2267 30.6725 85.8029 30.2141C85.379 29.7557 85.1523 29.221 85.1227 28.6098H87.629C87.7227 29.0238 88.0061 29.3491 88.4792 29.5857C88.9524 29.8223 89.5685 29.9406 90.3276 29.9406C91.7421 29.9406 92.4494 29.6276 92.4494 29.0016C92.4494 28.8439 92.3927 28.7158 92.2794 28.6172C92.1709 28.5186 91.991 28.4397 91.7397 28.3806C91.4883 28.3165 91.1408 28.2648 90.6972 28.2253L89.1298 28.0923C87.7793 27.9887 86.8133 27.7177 86.2317 27.279C85.6501 26.8354 85.3593 26.2563 85.3593 25.5416C85.3593 24.9501 85.5441 24.4498 85.9138 24.0407C86.2884 23.6316 86.8133 23.3236 87.4885 23.1166C88.1638 22.9096 88.9524 22.8061 89.8544 22.8061C90.7514 22.8061 91.5573 22.9293 92.272 23.1757C92.9867 23.4172 93.556 23.7573 93.9798 24.196C94.4086 24.6347 94.6502 25.1374 94.7044 25.7042H92.1981C92.1241 25.3592 91.8851 25.0709 91.4809 24.8392C91.0767 24.6026 90.4927 24.4843 89.7287 24.4843C89.1126 24.4843 88.637 24.5607 88.3018 24.7135C87.9666 24.8614 87.7991 25.0733 87.7991 25.3493C87.7991 25.5564 87.905 25.7215 88.117 25.8447C88.3338 25.963 88.7109 26.0443 89.2481 26.0887L91.2887 26.2587C92.1759 26.3327 92.8807 26.4781 93.4032 26.6949C93.9305 26.9118 94.3051 27.1952 94.5269 27.5451C94.7537 27.8902 94.867 28.3067 94.867 28.7946ZM97.5246 23.1757L98.7592 22.9391V31.4414H96.2825V22.9391L97.5246 23.1757ZM96.0089 20.7877C96.0089 20.4032 96.1469 20.0952 96.423 19.8635C96.7039 19.627 97.0711 19.5087 97.5246 19.5087C97.9731 19.5087 98.3354 19.627 98.6114 19.8635C98.8923 20.0952 99.0328 20.4032 99.0328 20.7877C99.0328 21.1721 98.8923 21.4827 98.6114 21.7192C98.3354 21.9509 97.9731 22.0667 97.5246 22.0667C97.0711 22.0667 96.7039 21.9509 96.423 21.7192C96.1469 21.4827 96.0089 21.1721 96.0089 20.7877ZM108.104 28.8907C107.665 29.4181 107.118 29.8469 106.463 30.1772C105.807 30.5074 105.08 30.6725 104.282 30.6725C103.508 30.6725 102.808 30.5099 102.182 30.1845C101.561 29.8543 101.073 29.391 100.718 28.7946C100.363 28.1982 100.186 27.5131 100.186 26.7393C100.186 25.9655 100.363 25.2803 100.718 24.684C101.073 24.0876 101.561 23.6267 102.182 23.3014C102.808 22.9712 103.508 22.8061 104.282 22.8061C105.08 22.8061 105.805 22.9786 106.455 23.3236C107.111 23.6637 107.66 24.1073 108.104 24.6544V23.0353H110.573V29.2012C110.573 30.2363 110.342 31.121 109.878 31.8554C109.42 32.5948 108.774 33.1542 107.941 33.5337C107.108 33.9132 106.142 34.103 105.043 34.103C104.289 34.103 103.587 34.0044 102.936 33.8073C102.285 33.615 101.645 33.3144 101.014 32.9053V30.9682C102.138 31.8259 103.429 32.2547 104.888 32.2547C105.938 32.2547 106.736 32.0107 107.283 31.5227C107.83 31.0397 108.104 30.3152 108.104 29.3491V28.8907ZM102.677 26.7393C102.677 27.178 102.771 27.5624 102.958 27.8926C103.15 28.2229 103.426 28.4792 103.786 28.6615C104.151 28.8439 104.585 28.9351 105.087 28.9351C106.398 28.9351 107.434 28.2032 108.193 26.7393C107.434 25.2705 106.398 24.5361 105.087 24.5361C104.59 24.5361 104.158 24.6273 103.794 24.8096C103.434 24.992 103.158 25.2508 102.966 25.5859C102.773 25.9162 102.677 26.3006 102.677 26.7393Z" fill="white"/>
</svg>
